<svg xmlns="http://www.w3.org/2000/svg" width="96.201" height="96.2" viewBox="0 0 96.201 96.2">
  <g id="settings" transform="translate(0 -0.001)">
    <g id="Group_1" data-name="Group 1" transform="translate(0 0.001)">
      <path id="Path_1" data-name="Path 1" d="M91.277,38l-6.752-1.145a38.127,38.127,0,0,0-2.713-6.551l3.979-5.567a5.925,5.925,0,0,0-.643-7.657l-5.989-5.989a5.9,5.9,0,0,0-4.2-1.748,5.839,5.839,0,0,0-3.436,1.105L65.935,14.43a37.73,37.73,0,0,0-6.792-2.793L58.017,4.965A5.937,5.937,0,0,0,52.149,0h-8.46a5.937,5.937,0,0,0-5.868,4.964L36.655,11.8a37.188,37.188,0,0,0-6.531,2.753L24.6,10.572a5.936,5.936,0,0,0-7.657.643L10.932,17.2a5.949,5.949,0,0,0-.643,7.657l4.019,5.647a37.241,37.241,0,0,0-2.673,6.571L4.964,38.2A5.937,5.937,0,0,0,0,44.072v8.46A5.937,5.937,0,0,0,4.964,58.4L11.8,59.566A37.187,37.187,0,0,0,14.55,66.1L10.591,71.6a5.925,5.925,0,0,0,.643,7.657l5.989,5.989A5.9,5.9,0,0,0,21.422,87a5.839,5.839,0,0,0,3.436-1.105l5.647-4.019a38.017,38.017,0,0,0,6.35,2.612l1.125,6.752A5.937,5.937,0,0,0,43.85,96.2H52.33A5.937,5.937,0,0,0,58.2,91.237l1.145-6.752A38.127,38.127,0,0,0,65.9,81.772l5.567,3.979a5.9,5.9,0,0,0,3.457,1.105h0a5.9,5.9,0,0,0,4.2-1.748l5.989-5.989a5.949,5.949,0,0,0,.643-7.657l-3.979-5.587a37.853,37.853,0,0,0,2.713-6.551L91.236,58.2A5.937,5.937,0,0,0,96.2,52.331v-8.46A5.865,5.865,0,0,0,91.277,38Zm-.462,14.329a.52.52,0,0,1-.442.523l-8.44,1.407a2.7,2.7,0,0,0-2.17,1.99,32.171,32.171,0,0,1-3.5,8.42,2.717,2.717,0,0,0,.121,2.954l4.964,6.993a.547.547,0,0,1-.06.683L75.3,81.29a.51.51,0,0,1-.382.161.494.494,0,0,1-.3-.1l-6.973-4.964a2.716,2.716,0,0,0-2.954-.121,32.17,32.17,0,0,1-8.42,3.5,2.667,2.667,0,0,0-1.99,2.17l-1.427,8.44a.52.52,0,0,1-.522.442H43.87a.52.52,0,0,1-.523-.442l-1.407-8.44a2.7,2.7,0,0,0-1.99-2.17,33.4,33.4,0,0,1-8.239-3.376,2.782,2.782,0,0,0-1.367-.362,2.647,2.647,0,0,0-1.567.5l-7.034,5a.6.6,0,0,1-.3.1.539.539,0,0,1-.382-.161l-5.989-5.989a.545.545,0,0,1-.06-.683l4.944-6.933a2.751,2.751,0,0,0,.121-2.974,31.867,31.867,0,0,1-3.537-8.4,2.752,2.752,0,0,0-2.17-1.99l-8.5-1.447a.52.52,0,0,1-.442-.522v-8.46a.52.52,0,0,1,.442-.523l8.38-1.407a2.717,2.717,0,0,0,2.19-2.01,32.138,32.138,0,0,1,3.436-8.44,2.683,2.683,0,0,0-.141-2.934l-5-7.034a.547.547,0,0,1,.06-.683l5.989-5.989a.51.51,0,0,1,.382-.161.494.494,0,0,1,.3.1L28.4,19.936a2.751,2.751,0,0,0,2.974.121,31.867,31.867,0,0,1,8.4-3.537,2.752,2.752,0,0,0,1.99-2.17l1.447-8.5a.52.52,0,0,1,.522-.442h8.46a.52.52,0,0,1,.522.442l1.407,8.38a2.717,2.717,0,0,0,2.01,2.19,32.619,32.619,0,0,1,8.621,3.537,2.717,2.717,0,0,0,2.954-.121l6.933-4.984a.6.6,0,0,1,.3-.1.539.539,0,0,1,.382.161L81.309,20.9a.545.545,0,0,1,.06.683l-4.964,6.973a2.715,2.715,0,0,0-.121,2.954,32.171,32.171,0,0,1,3.5,8.42,2.667,2.667,0,0,0,2.17,1.99l8.44,1.427a.52.52,0,0,1,.442.522v8.46Z" transform="translate(0 -0.001)" fill="#2680eb"/>
      <path id="Path_2" data-name="Path 2" d="M156.859,136a20.759,20.759,0,1,0,20.759,20.759A20.772,20.772,0,0,0,156.859,136Zm0,36.093a15.333,15.333,0,1,1,15.333-15.333A15.343,15.343,0,0,1,156.859,172.094Z" transform="translate(-108.749 -108.67)" fill="#2680eb"/>
    </g>
  </g>
</svg>
